HIERARCHY
ROOT reference
{
  OFFSET 0 0 0
  CHANNELS 6 Xposition Yposition Zposition Zrotation Xrotation Yrotation
  JOINT Hips
  {
    OFFSET 4.38797 80.5719 4.69065
    CHANNELS 6 Xposition Yposition Zposition Zrotation Xrotation Yrotation
    JOINT Spine
    {
      OFFSET 0 7.52385 0
      CHANNELS 6 Xposition Yposition Zposition Zrotation Xrotation Yrotation
      JOINT Spine1
      {
        OFFSET 0 21.7843 0
        CHANNELS 6 Xposition Yposition Zposition Zrotation Xrotation Yrotation
        JOINT Neck
        {
          OFFSET 0 21.6948 1.97225
          CHANNELS 6 Xposition Yposition Zposition Zrotation Xrotation Yrotation
          JOINT Head
          {
            OFFSET 0 12.8456 -1.83509
            CHANNELS 6 Xposition Yposition Zposition Zrotation Xrotation Yrotation
            End Site
            {
              OFFSET 0 22.9386 0
            }
          }
        }
        JOINT LeftShoulder
        {
          OFFSET 3.65748 19.7052 -0.211895
          CHANNELS 6 Xposition Yposition Zposition Zrotation Xrotation Yrotation
          JOINT LeftArm
          {
            OFFSET 11.1953 0 0
            CHANNELS 6 Xposition Yposition Zposition Zrotation Xrotation Yrotation
            JOINT LeftForeArm
            {
              OFFSET 29.6607 0 0
              CHANNELS 6 Xposition Yposition Zposition Zrotation Xrotation Yrotation
              JOINT LeftHand
              {
                OFFSET 23.3476 0 0
                CHANNELS 6 Xposition Yposition Zposition Zrotation Xrotation Yrotation
                End Site
                {
                  OFFSET 13.7631 0 0
                }
              }
            }
          }
        }
        JOINT RightShoulder
        {
          OFFSET -3.68053 19.7052 -0.211895
          CHANNELS 6 Xposition Yposition Zposition Zrotation Xrotation Yrotation
          JOINT RightArm
          {
            OFFSET -11.1953 0 0
            CHANNELS 6 Xposition Yposition Zposition Zrotation Xrotation Yrotation
            JOINT RightForeArm
            {
              OFFSET -29.6607 0 0
              CHANNELS 6 Xposition Yposition Zposition Zrotation Xrotation Yrotation
              JOINT RightHand
              {
                OFFSET -23.3476 0 0
                CHANNELS 6 Xposition Yposition Zposition Zrotation Xrotation Yrotation
                End Site
                {
                  OFFSET -13.7631 0 0
                }
              }
            }
          }
        }
      }
    }
    JOINT LeftUpLeg
    {
      OFFSET 9.17543 0 0
      CHANNELS 6 Xposition Yposition Zposition Zrotation Xrotation Yrotation
      JOINT LeftLeg
      {
        OFFSET 0 -39.1216 0
        CHANNELS 6 Xposition Yposition Zposition Zrotation Xrotation Yrotation
        JOINT LeftFoot
        {
          OFFSET 0 -35.3569 0
          CHANNELS 6 Xposition Yposition Zposition Zrotation Xrotation Yrotation
          JOINT LeftToeBase
          {
            OFFSET 0 -5.96403 13.7631
            CHANNELS 6 Xposition Yposition Zposition Zrotation Xrotation Yrotation
            End Site
            {
              OFFSET 0 0 3.67017
            }
          }
        }
      }
    }
    JOINT RightUpLeg
    {
      OFFSET -9.17543 0 0
      CHANNELS 6 Xposition Yposition Zposition Zrotation Xrotation Yrotation
      JOINT RightLeg
      {
        OFFSET 0 -39.1216 0
        CHANNELS 6 Xposition Yposition Zposition Zrotation Xrotation Yrotation
        JOINT RightFoot
        {
          OFFSET 0 -35.3569 0
          CHANNELS 6 Xposition Yposition Zposition Zrotation Xrotation Yrotation
          JOINT RightToeBase
          {
            OFFSET 0 -5.96403 13.7631
            CHANNELS 6 Xposition Yposition Zposition Zrotation Xrotation Yrotation
            End Site
            {
              OFFSET 0 0 3.67017
            }
          }
        }
      }
    }
  }
}
MOTION
Frames:	11
Frame Time:	0.004
0 0 0 0 0 -0 -9.85648 75.373 -214.15 -1.11442 -10.0391 4.79642 0 7.52385 0 1.44636 6.04774 -0.816262 0 21.7843 2.84217e-014 3.11685 -4.26429 -0.631522 0 21.6948 1.97225 -1.54554 13.7888 -0.349197 0 12.8456 -1.83509 -0.232659 4.16935 -0.348052 3.65748 19.7052 -0.211895 17.6016 -2.86807 -4.09788 11.1953 0 0 -20.8124 4.63634 -2.06865 29.6607 -2.84217e-014 0 -0.258782 -3.41999 -0.294952 23.3476 0 -2.84217e-014 -0.540597 -3.38214 -7.78246 -3.68053 19.7052 -0.211895 -18.3208 -0.477885 -1.55666 -11.1953 0 0 23.7306 2.1496 6.50853 -29.6607 2.84217e-014 -2.84217e-014 -0.535664 -4.10881 -0.156148 -23.3476 0 0 -1.61672 -4.20594 6.74753 9.17543 1.42109e-014 0 4.64749 15.0338 0.311196 0 -39.1216 -2.84217e-014 -0.903533 -0.56124 0.560429 0 -35.3569 -5.68434e-014 0.652999 -8.36729 9.00981 0 -5.96403 13.7631 0 0 -6.36111e-015 -9.17543 1.42109e-014 0 -1.17678 14.5922 3.25239 -3.55271e-015 -39.1216 -2.84217e-014 0.73096 0.950596 0.742228 -7.10543e-015 -35.3569 2.84217e-014 0.916318 -7.76524 -19.9392 0 -5.96403 13.7631 -9.93923e-017 -3.97569e-016 -1.59028e-015 
0 0 0 0 0 -0 -9.85648 75.373 -214.15 -1.11442 -10.0391 4.79642 0 7.52385 0 1.44636 6.04774 -0.816262 0 21.7843 2.84217e-014 3.11685 -4.26429 -0.631522 0 21.6948 1.97225 -1.52727 13.78 -0.349184 3.55271e-015 12.8456 -1.83509 -0.256062 4.17791 -0.348055 3.65748 19.7052 -0.211895 17.6016 -2.86807 -4.09788 11.1953 0 0 -20.8131 4.61762 -2.06859 29.6607 0 0 -0.261815 -3.41999 -0.294952 23.3476 0 2.84217e-014 -0.540543 -3.38215 -7.78154 -3.68053 19.7052 -0.211895 -18.3113 -0.477885 -1.55666 -11.1953 0 0 23.7308 2.14783 6.50852 -29.6607 0 0 -0.524193 -4.10881 -0.149815 -23.3476 0 -2.84217e-014 -1.6393 -4.20594 6.74753 9.17543 1.42109e-014 0 4.65006 15.0338 0.301297 3.55271e-015 -39.1216 0 -0.903351 -0.579789 0.560431 -3.55271e-015 -35.3569 0 0.683544 -8.3556 9.00953 7.10543e-015 -5.96403 13.7631 1.32417e-031 1.19271e-015 -6.36111e-015 -9.17543 1.42109e-014 0 -1.17678 14.5922 3.25239 -3.55271e-015 -39.1216 -2.84217e-014 0.729162 0.950571 0.850613 -7.10543e-015 -35.3569 2.84217e-014 0.872352 -7.76002 -20.0465 0 -5.96403 13.7631 -4.96962e-017 3.97569e-016 -1.59028e-015 
0 0 0 0 0 -0 -9.85648 75.373 -214.15 -1.11442 -10.0391 4.79642 0 7.52385 0 1.44635 6.04747 -0.816261 0 21.7843 0 3.11685 -4.26429 -0.631522 0 21.6948 1.97225 -1.5195 13.757 -0.349149 0 12.8456 -1.83509 -0.261078 4.20625 -0.348068 3.65748 19.7052 -0.211895 17.6016 -2.86807 -4.09788 11.1953 -2.84217e-014 2.84217e-014 -20.8137 4.60142 -2.06854 29.6607 0 2.84217e-014 -0.272443 -3.41999 -0.294952 23.3476 0 0 -0.536913 -3.38224 -7.77099 -3.68053 19.7052 -0.211895 -18.3084 -0.477885 -1.55666 -11.1953 -2.84217e-014 2.84217e-014 23.7292 2.16517 6.49768 -29.6607 2.84217e-014 0 -0.524016 -4.10881 -0.141355 -23.3476 0 0 -1.65966 -4.20603 6.73736 9.17543 1.42109e-014 0 4.64633 15.0338 0.315671 0 -39.1216 -2.84217e-014 -0.903509 -0.563683 0.560429 -3.55271e-015 -35.3569 2.84217e-014 0.647977 -8.36897 9.00922 7.10543e-015 -5.96403 13.7631 4.41391e-032 7.95139e-016 -3.18055e-015 -9.17543 1.42109e-014 0 -1.18662 14.5922 3.25239 0 -39.1216 -2.84217e-014 0.728563 0.950562 0.886702 3.55271e-015 -35.3569 0 0.867487 -7.75606 -20.0649 0 -5.96403 13.7631 2.98177e-016 0 1.59028e-015 
0 0 0 0 0 -0 -9.85648 75.373 -214.15 -1.11442 -10.0391 4.79642 0 7.52385 0 1.44632 6.04513 -0.816258 0 21.7843 -2.84217e-014 3.11034 -4.26429 -0.631522 -1.77636e-015 21.6948 1.97225 -1.52131 13.7625 -0.349158 0 12.8456 -1.83509 -0.25061 4.19426 -0.348063 3.65748 19.7052 -0.211895 17.602 -2.8651 -4.09538 11.1953 2.84217e-014 0 -20.814 4.58911 -2.07066 29.6607 0 0 -0.280935 -3.41999 -0.292049 23.3476 0 -2.84217e-014 -0.563145 -3.38214 -7.78272 -3.68053 19.7052 -0.211895 -18.2999 -0.477885 -1.55666 -11.1953 0 0 23.728 2.17312 6.51258 -29.6607 0 0 -0.532928 -4.10881 -0.139518 -23.3476 0 -2.84217e-014 -1.64927 -4.20597 6.74475 9.17543 1.42109e-014 0 4.64792 15.0338 0.30955 3.55271e-015 -39.1216 0 -0.903321 -0.579663 0.563606 -3.55271e-015 -35.3569 0 0.643867 -8.35168 8.99724 -7.10543e-015 -5.96403 13.7631 3.97569e-016 -3.97569e-016 -3.18055e-015 -9.17543 1.42109e-014 0 -1.18725 14.592 3.26783 0 -39.1216 -2.84217e-014 0.731039 0.950597 0.737466 -3.55271e-015 -35.3569 0 0.897136 -7.7503 -19.9304 0 -5.96403 13.7631 0 0 -0 
0 0 0 0 0 -0 -9.85648 75.373 -214.15 -1.11442 -10.0391 4.79642 0 7.52385 0 1.44628 6.04249 -0.816254 1.77636e-015 21.7843 0 3.12899 -4.26429 -0.631522 0 21.6948 1.97225 -1.54239 13.7585 -0.349152 -1.77636e-015 12.8456 -1.83509 -0.237731 4.19915 -0.348065 3.65748 19.7052 -0.211895 17.601 -2.87972 -4.09295 11.1953 0 -2.84217e-014 -20.8139 4.5853 -2.07372 29.6607 0 2.84217e-014 -0.27458 -3.41999 -0.290058 23.3476 0 0 -0.567768 -3.38211 -7.78732 -3.68053 19.7052 -0.211895 -18.3187 -0.477885 -1.55666 -11.1953 0 -2.84217e-014 23.7373 2.18114 6.51387 -29.6607 0 0 -0.528674 -4.10881 -0.135616 -23.3476 0 0 -1.64616 -4.20605 6.73501 9.17543 1.42109e-014 0 4.64763 15.0338 0.310683 3.55271e-015 -39.1216 2.84217e-014 -0.903504 -0.559574 0.565029 0 -35.3569 0 0.624923 -8.3674 8.99374 -7.10543e-015 -5.96403 13.7631 -5.96354e-016 0 -6.36111e-015 -9.17543 1.42109e-014 0 -1.18844 14.5919 3.26934 0 -39.1216 0 0.728149 0.966325 0.896768 3.55271e-015 -35.3569 -2.84217e-014 0.876001 -7.76417 -20.0799 0 -5.96403 13.7631 -1.10348e-032 3.97569e-016 1.59028e-015 
0 0 0 0 0 -0 -9.85648 75.373 -214.15 -1.11442 -10.0391 4.79642 0 7.52385 0 1.44624 6.03974 -0.81625 0 21.7843 2.84217e-014 3.11497 -4.26429 -0.631522 0 21.6948 1.97225 -1.5199 13.7687 -0.349167 1.77636e-015 12.8456 -1.83509 -0.256124 4.18286 -0.348058 3.65748 19.7052 -0.211895 17.6016 -2.87256 -4.09133 11.1953 0 -2.84217e-014 -20.8097 4.57914 -2.08011 29.6607 0 0 -0.277224 -3.42977 -0.29309 23.3476 0 2.84217e-014 -0.571761 -3.39172 -7.77038 -3.68053 19.7052 -0.211895 -18.3099 -0.477885 -1.55666 -11.1953 0 0 23.7351 2.20426 6.51591 -29.6607 0 0 -0.52447 -4.1029 -0.140582 -23.3476 0 0 -1.65914 -4.20086 6.73194 9.17543 1.42109e-014 0 4.64711 15.0338 0.312663 0 -39.1216 0 -0.903125 -0.58336 0.579254 0 -35.3569 0 0.657761 -8.34943 8.977 7.10543e-015 -5.96403 13.7631 -1.98785e-016 -3.97569e-016 -3.18055e-015 -9.17543 1.42109e-014 0 -1.18413 14.5922 3.24768 0 -39.1216 0 0.728047 0.967221 0.902006 -3.55271e-015 -35.3569 0 0.901582 -7.7843 -20.0852 1.42109e-014 -5.96403 13.7631 -1.49089e-016 0 -0 
0 0 0 0 0 -0 -9.85648 75.373 -214.15 -1.11442 -10.0391 4.79642 0 7.52385 0 1.4462 6.03706 -0.816246 1.77636e-015 21.7843 2.84217e-014 3.11628 -4.26429 -0.631522 3.55271e-015 21.6948 1.97225 -1.52902 13.7547 -0.349146 1.77636e-015 12.8456 -1.83509 -0.234652 4.20375 -0.348067 3.65748 19.7052 -0.211895 17.6015 -2.87535 -4.09051 11.1953 0 0 -20.8042 4.54103 -2.08609 29.6607 0 0 -0.298653 -3.41165 -0.27601 23.3476 -2.84217e-014 0 -0.585038 -3.37266 -7.77777 -3.68053 19.7052 -0.211895 -18.3 -0.477885 -1.55666 -11.1953 0 -2.84217e-014 23.7188 2.20971 6.527 -29.6607 -5.68434e-014 2.84217e-014 -0.516779 -4.08351 -0.151044 -23.3476 0 0 -1.64534 -4.18097 6.74993 9.17543 1.42109e-014 0 4.6465 15.0338 0.315014 0 -39.1216 -2.84217e-014 -0.903391 -0.572379 0.563744 0 -35.3569 0 0.651329 -8.35616 8.99613 7.10543e-015 -5.96403 13.7631 -5.96354e-016 0 3.18055e-015 -9.17543 1.42109e-014 0 -1.18477 14.5923 3.24488 -3.55271e-015 -39.1216 2.84217e-014 0.727897 0.966656 0.911426 -7.10543e-015 -35.3569 2.84217e-014 0.882378 -7.76365 -20.0772 0 -5.96403 13.7631 1.49089e-016 3.97569e-016 1.59028e-015 
0 0 0 0 0 -0 -9.85648 75.373 -214.15 -1.11442 -10.0391 4.79642 0 7.52385 0 1.44617 6.03456 -0.816242 0 21.7843 0 3.11394 -4.26429 -0.631522 0 21.6948 1.97225 -1.52942 13.7636 -0.349159 0 12.8456 -1.83509 -0.249442 4.18621 -0.348059 3.65748 19.7052 -0.211895 17.6012 -2.88 -4.08972 11.1953 0 0 -20.8024 4.54147 -2.08492 29.6607 0 0 -0.297941 -3.41222 -0.27646 23.3476 0 -5.68434e-014 -0.588807 -3.37298 -7.77814 -3.68053 19.7052 -0.211895 -18.3098 -0.477885 -1.55666 -11.1953 0 0 23.7265 2.2173 6.53276 -29.6607 -2.84217e-014 2.84217e-014 -0.509871 -4.0652 -0.157063 -23.3476 0 0 -1.67109 -4.16406 6.74043 9.17543 1.42109e-014 0 4.64592 15.0338 0.317259 0 -39.1216 -2.84217e-014 -0.903198 -0.581464 0.573933 -3.55271e-015 -35.3569 0 0.660174 -8.35497 8.99646 7.10543e-015 -5.96403 13.7631 5.96354e-016 -7.95139e-016 -1.27222e-014 -9.17543 1.42109e-014 0 -1.18991 14.5921 3.25962 -3.55271e-015 -39.1216 0 0.72892 0.965953 0.851389 7.10543e-015 -35.3569 2.84217e-014 0.875183 -7.75883 -20.0306 1.42109e-014 -5.96403 13.7631 4.96962e-017 -7.95139e-016 1.59028e-015 
0 0 0 0 0 -0 -9.85648 75.373 -214.15 -1.11253 -10.039 4.80723 0 7.52385 0 1.44611 6.03042 -0.816236 0 21.7843 -2.84217e-014 3.1095 -4.26429 -0.631522 0 21.6948 1.97225 -1.52878 13.7743 -0.349175 0 12.8456 -1.83509 -0.2502 4.1592 -0.348047 3.65748 19.7052 -0.211895 17.5982 -2.88447 -4.08895 11.1953 2.84217e-014 2.84217e-014 -20.8012 4.54084 -2.08866 29.6607 2.84217e-014 0 -0.303578 -3.41395 -0.271647 23.3476 2.84217e-014 0 -0.598763 -3.37469 -7.77798 -3.68053 19.7052 -0.211895 -18.3001 -0.477885 -1.55666 -11.1953 2.84217e-014 2.84217e-014 23.7153 2.26078 6.53794 -29.6607 0 2.84217e-014 -0.505596 -4.04756 -0.169179 -23.3476 0 0 -1.64276 -4.14501 6.75403 9.17543 1.42109e-014 -2.84217e-014 4.64552 15.0282 0.318911 -3.55271e-015 -39.1216 2.84217e-014 -0.903595 -0.57022 0.545368 0 -35.3569 0 0.64604 -8.35193 9.01092 0 -5.96403 13.7631 -1.98785e-016 0 -3.18055e-015 -9.17543 -1.42109e-014 0 -1.18887 14.5922 3.25002 0 -39.1216 -2.84217e-014 0.728179 0.965123 0.896109 -3.55271e-015 -35.3569 0 0.886984 -7.77423 -20.0814 0 -5.96403 13.7631 1.98785e-016 -3.97569e-016 3.18055e-015 
0 0 0 0 0 -0 -9.85648 75.373 -214.15 -1.11218 -10.0389 4.80922 3.55271e-015 7.52385 -2.84217e-014 1.43997 6.02674 -0.81623 0 21.7843 0 3.12964 -4.26429 -0.631522 3.55271e-015 21.6948 1.97225 -1.52743 13.7433 -0.349129 0 12.8456 -1.83509 -0.252418 4.21249 -0.348071 3.65748 19.7052 -0.211895 17.5841 -2.88732 -4.08822 11.1953 0 -2.84217e-014 -20.8006 4.52725 -2.09276 29.6607 0 2.84217e-014 -0.308467 -3.41519 -0.267277 23.3476 0 0 -0.593603 -3.37563 -7.77746 -3.68053 19.7052 -0.211895 -18.3107 -0.477885 -1.55666 -11.1953 0 0 23.7075 2.25904 6.54868 -29.6607 0 0 -0.495436 -4.02123 -0.179286 -23.3476 2.84217e-014 0 -1.63472 -4.11838 6.76306 9.17543 0 0 4.64566 15.0248 0.319505 0 -39.1216 0 -0.909325 -0.579742 0.581778 3.55271e-015 -35.3569 0 0.655976 -8.35049 8.98208 0 -5.96403 13.7631 3.97569e-016 1.19271e-015 3.18055e-015 -9.17543 -1.42109e-014 0 -1.19001 14.5922 3.24977 0 -39.1216 0 0.721887 0.964264 0.871293 0 -35.3569 0 0.878667 -7.76105 -20.0641 0 -5.96403 13.7631 1.49089e-016 -3.97569e-016 1.59028e-015 
0 0 0 0 0 -0 -9.85648 75.373 -214.15 -1.11173 -10.0423 4.8102 0 7.52385 -2.84217e-014 1.43797 6.02707 -0.816231 -1.77636e-015 21.7843 2.84217e-014 3.11944 -4.26429 -0.631522 3.55271e-015 21.6948 1.97225 -1.52507 13.7331 -0.349114 0 12.8456 -1.83509 -0.242008 4.22034 -0.348074 3.65748 19.7052 -0.211895 17.5832 -2.89546 -4.08752 11.1953 0 0 -20.7992 4.53578 -2.0955 29.6607 0 0 -0.302702 -3.41283 -0.260956 23.3476 0 0 -0.622646 -3.37128 -7.77675 -3.68053 19.7052 -0.211895 -18.3005 -0.477885 -1.55666 -11.1953 0 0 23.7034 2.29187 6.5482 -29.6607 2.84217e-014 -2.84217e-014 -0.500992 -4.00834 -0.182283 -23.3476 0 2.84217e-014 -1.6554 -4.10655 6.75152 9.17543 0 0 4.64864 15.0335 0.308914 3.55271e-015 -39.1216 0 -0.909391 -0.580455 0.576842 -3.55271e-015 -35.3569 0 0.659645 -8.35182 8.99605 -7.10543e-015 -5.96403 13.7631 -3.97569e-016 1.19271e-015 -0 -9.17543 0 0 -1.19107 14.5951 3.24983 3.55271e-015 -39.1216 0 0.7325 0.963408 0.876167 0 -35.3569 -2.84217e-014 0.895298 -7.77864 -20.0816 -1.42109e-014 -5.96403 13.7631 9.93923e-017 -3.97569e-016 -1.59028e-015 
